{"title":"Entertainment (2014) - 720p - DVDRip - Hindi - x264 - AC3 - 5.1 ","uid":11126452,"size":1182945446,"categoryP":"video","categoryS":"hd___movies","magnet":"?xt=urn:btih:14e3cb412c7d053714cf50323a33f83dc712a8e7&amp;dn=Entertainment+%282014%29+-+720p+-+DVDRip+-+Hindi+-+x264+-+AC3+-+5.1+&amp;tr=udp%3A%2F%2Ftracker.openbittorrent.com%3A80&amp;tr=udp%3A%2F%2Fopen.demonii.com%3A1337&amp;tr=udp%3A%2F%2Ftracker.coppersurfer.tk%3A6969&amp;tr=udp%3A%2F%2Fexodus.desync.com%3A6969","seeders":1,"leechers":2,"uploader":"inovai","files":3,"time":1411972598,"description":"Entertainment (2014) - 720p - DVDRip - Hindi - x264 - AC3 - 5.1 - Mafiaking - TeamTNT\n\nIMDB Rating: 5.3/10.0\n\n\nGENRE: Comedy\n\nScreenshots:\n &lt;a href=&quot;\nhttp://m.primetimeshow.in/share-7C58_5428E158.html&quot; rel=&quot;nofollow&quot; target=&quot;_NEW&quot;&gt;\nhttp://m.primetimeshow.in/share-7C58_5428E158.html&lt;/a&gt;\n &lt;a href=&quot;\nhttp://m.primetimeshow.in/share-FE48_5428E158.html&quot; rel=&quot;nofollow&quot; target=&quot;_NEW&quot;&gt;\nhttp://m.primetimeshow.in/share-FE48_5428E158.html&lt;/a&gt;\n &lt;a href=&quot;\nhttp://m.primetimeshow.in/share-A7B6_5428E158.html&quot; rel=&quot;nofollow&quot; target=&quot;_NEW&quot;&gt;\nhttp://m.primetimeshow.in/share-A7B6_5428E158.html&lt;/a&gt;\n &lt;a href=&quot;\nhttp://m.primetimeshow.in/share-5A7C_5428E158.html&quot; rel=&quot;nofollow&quot; target=&quot;_NEW&quot;&gt;\nhttp://m.primetimeshow.in/share-5A7C_5428E158.html&lt;/a&gt;\n &lt;a href=&quot;\nhttp://m.primetimeshow.in/share-CAAB_5428E158.html&quot; rel=&quot;nofollow&quot; target=&quot;_NEW&quot;&gt;\nhttp://m.primetimeshow.in/share-CAAB_5428E158.html&lt;/a&gt;\n\nGeneral\nUnique ID : 194321541822483616788345109251047816861 (0x9230F7B62D2AC8B0B74B79C2F137FE9D)\nComplete name : Entertainment (2014) - 720p - DVDRip - Hindi - x264 - AC3 - 5.1 - Mafiaking - TeamTNT.mkv\nFormat : Matroska\nFormat version : Version 4 / Version 2\nFile size : 1.09 GiB\nDuration : 2h 19mn\nOverall bit rate : 1 126 Kbps\nMovie name : Entertainment (2014) - 720p - DVDRip - Hindi - x264 - AC3 - 5.1 - Mafiaking - TeamTNT\nEncoded date : UTC 2014-09-28 16:37:51\nWriting application : mkvmerge v7.0.0 ('Where We Going') 64bit built on Jun 9 2014 15:16:27\nWriting library : libebml v1.3.0 + libmatroska v1.4.1\n\n\nVideo\nID : 1\nFormat : AVC\nFormat/Info : Advanced Video Codec\nFormat profile : &lt;a class=&quot;__cf_email__&quot; href=&quot;/cdn-cgi/l/email-protection&quot; data-cfemail=&quot;c880a1afa08884fce6f9&quot;&gt;[email&amp;#160;protected]&lt;/a&gt;&lt;script data-cfhash='f9e31' type=&quot;text/javascript&quot;&gt;\n/* &lt;![CDATA[ */!function(){try{var t=&quot;currentScript&quot;in document?document.currentScript:function(){for(var t=document.getElementsByTagName(&quot;script&quot;),e=t.length;e--;)if(t[e].getAttribute(&quot;data-cfhash&quot;))return t[e]}();if(t&amp;&amp;t.previousSibling){var e,r,n,i,c=t.previousSibling,a=c.getAttribute(&quot;data-cfemail&quot;);if(a){for(e=&quot;&quot;,r=parseInt(a.substr(0,2),16),n=2;a.length-n;n+=2)i=parseInt(a.substr(n,2),16)^r,e+=String.fromCharCode(i);e=document.createTextNode(e),c.parentNode.replaceChild(e,c)}t.parentNode.removeChild(t);}}catch(u){}}()/* ]]&gt; */&lt;/script&gt;\nFormat settings, CABAC : Yes\nFormat settings, ReFrames : 4 frames\nCodec ID : V_MPEG4/ISO/AVC\nDuration : 2h 19mn\nBit rate : 900 Kbps\nWidth : 1 280 pixels\nHeight : 544 pixels\nDisplay aspect ratio : 2.35:1\nFrame rate mode : Constant\nFrame rate : 23.976 fps\nColor space : YUV\nChroma subsampling : 4:2:0\nBit depth : 8 bits\nScan type : Progressive\nBits/(Pixel*Frame) : 0.054\nStream size : 875 MiB (78%)\nTitle : Mafiaking\nLanguage : Hindi\nDefault : Yes\nForced : No\n\n\nAudio\nID : 2\nFormat : AC-3\nFormat/Info : Audio Coding 3\nMode extension : CM (complete main)\nFormat settings, Endianness : Big\nCodec ID : A_AC3\nDuration : 2h 19mn\nBit rate mode : Constant\nBit rate : 224 Kbps\nChannel(s) : 6 channels\nChannel positions : Front: L C R, Side: L R, LFE\nSampling rate : 48.0 KHz\nBit depth : 16 bits\nCompression mode : Lossy\nStream size : 223 MiB (20%)\nTitle : Mafiaking\nLanguage : Hindi\nDefault : Yes\nForced : No\n\nSAMPLE WITH IN TORRENT\n\nThanks to Mafiaking - TeamTNT!!\n\nSeed n Enjoy!","torrent":{"xt":"urn:btih:14e3cb412c7d053714cf50323a33f83dc712a8e7","amp;dn":"Entertainment+%282014%29+-+720p+-+DVDRip+-+Hindi+-+x264+-+AC3+-+5.1+","amp;tr":["udp%3A%2F%2Ftracker.openbittorrent.com%3A80","udp%3A%2F%2Fopen.demonii.com%3A1337","udp%3A%2F%2Ftracker.coppersurfer.tk%3A6969","udp%3A%2F%2Fexodus.desync.com%3A6969"],"infoHash":"14e3cb412c7d053714cf50323a33f83dc712a8e7","infoHashBuffer":{"type":"Buffer","data":[20,227,203,65,44,125,5,55,20,207,80,50,58,51,248,61,199,18,168,231]},"announce":[],"urlList":[]}}